# xmcd
#
# Track frame offsets: 
#        150
#        17905
#        50312
#        85822
#        115575
#        152070
#        192325
#        213342
#        239305
#
# Disc length: 3662 seconds
#
# Revision: 3
# Processed by: cddbd v1.5.1PL2 Copyright (c) Steve Scherf et al.
# Submitted via: ExactAudioCopy v0.95b3
#
DISCID=6c0e4c09
DTITLE=G.E.N.E. - GetTheTaste
DYEAR=1991
DGENRE=New Age
TTITLE0=GetTheTaste (radio cut)
TTITLE1=Hear-it
TTITLE2=See-it
TTITLE3=Smell-it
TTITLE4=Taste-it
TTITLE5=Feel-it
TTITLE6=Have-it
TTITLE7=Hold-it
TTITLE8=GetTheTaste
EXTD=YEAR: 1991
EXTT0=
EXTT1=
EXTT2=
EXTT3=
EXTT4=
EXTT5=
EXTT6=
EXTT7=
EXTT8=
PLAYORDER=
